#!OML:ASF F:\VICON\USERDATA\INSTALL\Justin_Nancy\Justin_Nancy.ASF
:FULLY-SPECIFIED
:DEGREES
198
root 0.389303 16.9044 21.3921 -0.889847 -0.498155 8.65763
lowerback 4.53982 -1.33888 -8.56669
upperback 0.496108 -2.21111 -0.0294957
thorax -1.71206 -1.04691 4.90226
lowerneck -16.4281 -1.94679 -10.2535
upperneck 20.8817 -0.975825 4.26012
head 9.38358 -0.800036 3.05634
rclavicle 3.78933e-014 -1.43125e-014
rhumerus -38.7373 -11.0422 -78.5998
rradius 31.0482
rwrist 6.047
rhand -13.7853 15.4507
rfingers 7.12502
rthumb 12.3361 -14.1654
lclavicle 3.78933e-014 -1.43125e-014
lhumerus -30.7417 -4.04301 84.2096
lradius 34.0468
lwrist -6.47683
lhand -12.1309 24.5819
lfingers 7.12502
lthumb 13.9309 54.0953
rfemur -35.3829 -1.92731 13.1724
rtibia 40.8518
rfoot -4.26622 -7.10762
rtoes -14.3226
lfemur 5.23927 -2.64734 -34.8783
ltibia 23.4914
lfoot -20.0197 1.25533
ltoes -0.719056
199
root 0.368538 16.9155 21.6407 -0.55803 -0.0561135 8.54393
lowerback 4.28915 -1.52733 -8.58106
upperback 0.477897 -2.43668 0.0681609
thorax -1.5521 -1.16568 5.01363
lowerneck -16.7891 -2.00947 -10.2951
upperneck 20.908 -1.00908 4.25536
head 9.46288 -0.817174 3.05847
rclavicle 1.09829e-014 -7.95139e-016
rhumerus -39.007 -10.95 -78.5894
rradius 30.6336
rwrist 6.10021
rhand -13.3643 14.1487
rfingers 7.12502
rthumb 12.742 -15.4425
lclavicle 1.09829e-014 -7.95139e-016
lhumerus -30.1508 -4.57684 84.0038
lradius 34.8379
lwrist -6.34536
lhand -12.3856 24.2257
lfingers 7.12502
lthumb 13.6854 53.7558
rfemur -35.1382 -1.42138 12.9943
rtibia 37.1091
rfoot -3.523 -7.74313
rtoes -12.8456
lfemur 6.31453 -2.37534 -34.5038
ltibia 22.4169
lfoot -20.0228 0.583597
ltoes -1.62158
200
root 0.350355 16.9041 21.897 -0.297407 0.370085 8.58429
lowerback 4.05023 -1.69617 -8.70009
upperback 0.453568 -2.64346 0.109031
thorax -1.40508 -1.27393 5.12232
lowerneck -16.9001 -2.06097 -10.2563
upperneck 20.7949 -1.05319 4.15238
head 9.44723 -0.842517 3.00821
rclavicle 1.73937e-014 -1.66979e-014
rhumerus -39.4324 -11.1517 -78.3776
rradius 30.3354
rwrist 6.50379
rhand -12.7653 13.1613
rfingers 7.12502
rthumb 13.3194 -16.393
lclavicle 1.73937e-014 -1.66979e-014
lhumerus -29.5529 -4.917 83.7711
lradius 35.6851
lwrist -6.14708
lhand -12.1236 24.7064
lfingers 7.12502
lthumb 13.9379 54.2193
rfemur -34.7618 -0.946214 12.5989
rtibia 33.1066
rfoot -2.63762 -8.62495
rtoes -12.3942
lfemur 7.47583 -2.17012 -34.324
ltibia 21.4596
lfoot -20.0906 -0.072978
ltoes -3.11797
201
root 0.328459 16.8817 22.1406 0.0351627 0.908236 8.43809
lowerback 3.9187 -1.88775 -8.62981
upperback 0.368529 -2.88474 0.213304
thorax -1.38114 -1.39303 5.19693
lowerneck -16.9414 -2.03384 -10.4151
upperneck 20.7533 -0.995461 4.2747
head 9.43706 -0.813054 3.08444
rclavicle -3.23025e-014 -7.15625e-015
rhumerus -39.895 -11.4064 -78.0908
rradius 30.1769
rwrist 6.97539
rhand -12.2491 12.4848
rfingers 7.12502
rthumb 13.8169 -17.0363
lclavicle -3.23025e-014 -7.15625e-015
lhumerus -28.9511 -5.32213 83.5754
lradius 36.3904
lwrist -5.77405
lhand -12.1599 25.1389
lfingers 7.12502
lthumb 13.9029 54.6542
rfemur -34.625 -0.475988 12.3651
rtibia 29.4158
rfoot -2.27125 -10.2005
rtoes -10.9481
lfemur 8.64963 -2.12618 -33.8759
ltibia 20.3629
lfoot -20.0013 -0.960409
ltoes -4.06133
202
root 0.303462 16.865 22.3889 0.254852 1.63122 8.46958
lowerback 4.03223 -2.12222 -8.79114
upperback 0.256873 -3.21943 0.286206
thorax -1.49713 -1.5501 5.38341
lowerneck -17.1858 -2.03214 -10.4362
upperneck 20.9192 -0.950213 4.23589
head 9.53716 -0.800382 3.08364
rclavicle -4.00551e-014 2.38542e-015
rhumerus -40.3904 -11.7221 -77.7676
rradius 29.9857
rwrist 7.40107
rhand -12.0926 12.1618
rfingers 7.12502
rthumb 13.9677 -17.349
lclavicle -4.00551e-014 2.38542e-015
lhumerus -28.4571 -5.53093 83.3384
lradius 36.9677
lwrist -5.84786
lhand -12.5026 25.2787
lfingers 7.12502
lthumb 13.5726 54.8163
rfemur -34.1445 -0.0548859 11.8375
rtibia 25.5553
rfoot -2.95388 -12.1976
rtoes -6.7823
lfemur 9.77483 -2.13558 -33.5402
ltibia 19.4449
lfoot -19.7699 -2.21625
ltoes -3.71258
203
root 0.279113 16.8535 22.6466 0.528654 2.37535 8.65513
lowerback 4.08027 -2.35924 -9.10671
upperback 0.0630858 -3.56355 0.312017
thorax -1.65197 -1.70566 5.60726
lowerneck -17.1171 -2.06653 -10.277
upperneck 20.8412 -0.983382 3.95735
head 9.49895 -0.83321 2.95308
rclavicle 3.48867e-014 -1.19271e-014
rhumerus -41.1236 -11.9536 -77.4383
rradius 29.8979
rwrist 7.57799
rhand -11.9381 12.0246
rfingers 7.12502
rthumb 14.1166 -17.4758
lclavicle 3.48867e-014 -1.19271e-014
lhumerus -28.1955 -5.61146 83.0527
lradius 37.6586
lwrist -5.90078
lhand -12.4552 25.2093
lfingers 7.12502
lthumb 13.6184 54.7438
rfemur -33.5567 0.385834 11.0605
rtibia 21.7693
rfoot -3.4417 -13.8501
rtoes -5.63203
lfemur 10.8685 -2.13498 -33.3423
ltibia 18.5319
lfoot -19.4556 -3.54523
ltoes -3.20602
204
root 0.253423 16.847 22.9021 0.761638 3.20643 8.63186
lowerback 3.99332 -2.6288 -9.24386
upperback -0.00520059 -3.92124 0.414042
thorax -1.59999 -1.88318 5.7991
lowerneck -16.9867 -2.15282 -10.1724
upperneck 20.5603 -1.08203 3.68653
head 9.38387 -0.895052 2.8229
rclavicle 3.75703e-014 1.59028e-015
rhumerus -41.6925 -12.2511 -77.0714
rradius 29.7625
rwrist 7.82942
rhand -11.9169 11.9317
rfingers 7.12502
rthumb 14.1371 -17.5674
lclavicle 3.75703e-014 1.59028e-015
lhumerus -27.6972 -5.56497 82.7963
lradius 38.2234
lwrist -5.82993
lhand -12.6096 24.9456
lfingers 7.12502
lthumb 13.4695 54.4901
rfemur -32.9296 1.12004 10.3082
rtibia 18.3661
rfoot -3.83436 -15.4911
rtoes -7.23825
lfemur 12.1785 -2.17432 -32.9069
ltibia 17.4482
lfoot -18.9808 -4.68801
ltoes -3.85381
205
root 0.22796 16.8379 23.1605 0.865161 3.98348 8.73502
lowerback 3.82037 -2.866 -9.46887
upperback 0.111533 -4.22199 0.445612
thorax -1.31209 -2.05021 5.95004
lowerneck -17.1919 -2.21448 -10.2415
upperneck 20.4987 -1.14015 3.75341
head 9.40533 -0.916951 2.84933
rclavicle -4.22417e-015 7.95139e-015
rhumerus -41.9517 -12.956 -76.6381
rradius 29.4563
rwrist 8.35721
rhand -11.9104 11.7969
rfingers 7.12502
rthumb 14.1434 -17.7017
lclavicle -4.22417e-015 7.95139e-015
lhumerus -26.9036 -5.68497 82.5094
lradius 38.6403
lwrist -5.38842
lhand -12.8502 25.1879
lfingers 7.12502
lthumb 13.2376 54.7476
rfemur -32.2442 2.34064 9.14146
rtibia 15.4544
rfoot -5.14972 -17.2665
rtoes -6.20719
lfemur 13.5878 -2.32261 -32.6323
ltibia 16.384
lfoot -18.4653 -5.60205
ltoes -5.35617
206
root 0.20375 16.8196 23.415 1.05192 4.58067 9.30547
lowerback 3.8375 -3.01424 -10.1094
upperback 0.0118788 -4.45639 0.321092
thorax -1.34827 -2.1573 6.18685
lowerneck -17.2444 -2.19919 -10.3744
upperneck 20.6246 -1.12881 3.97524
head 9.45933 -0.899938 2.95288
rclavicle 1.1281e-014 -6.36111e-015
rhumerus -42.4831 -13.6188 -76.1413
rradius 29.1522
rwrist 8.83657
rhand -11.76 11.4725
rfingers 7.12502
rthumb 14.2882 -18.0159
lclavicle 1.1281e-014 -6.36111e-015
lhumerus -26.3507 -5.78334 82.215
lradius 38.8928
lwrist -5.1087
lhand -13.2498 25.2818
lfingers 7.12502
lthumb 12.8524 54.8661
rfemur -31.7737 3.59371 7.48421
rtibia 13.153
rfoot -6.37667 -18.6216
rtoes -3.79578
lfemur 14.6726 -2.51131 -32.8852
ltibia 15.5095
lfoot -17.7631 -6.55897
ltoes -5.70889
207
root 0.182866 16.7964 23.6713 1.18339 5.09503 9.54279
lowerback 3.99473 -3.11607 -10.3765
upperback -0.114278 -4.63013 0.289883
thorax -1.5199 -2.22778 6.32268
lowerneck -17.3665 -2.21267 -10.4945
upperneck 20.7583 -1.13201 4.10931
head 9.53031 -0.898239 3.02198
rclavicle -3.12092e-014 -5.56597e-015
rhumerus -43.0776 -13.9846 -75.6905
rradius 28.8134
rwrist 9.02508
rhand -11.9815 11.5186
rfingers 7.12502
rthumb 14.0748 -17.9848
lclavicle -3.12092e-014 -5.56597e-015
lhumerus -25.96 -5.55581 81.954
lradius 39.2051
lwrist -5.17055
lhand -13.8242 24.9288
lfingers 7.12502
lthumb 12.2987 54.5471
rfemur -31.4371 4.21912 6.63628
rtibia 11.7725
rfoot -7.53025 -19.1565
rtoes -0.960009
lfemur 15.7679 -2.83035 -32.9114
ltibia 14.96
lfoot -17.1988 -7.00624
ltoes -6.86388
